<?xml version="1.0" encoding="UTF-8" standalone="no"?><!DOCTYPE svg PUBLIC "-//W3C//DTD SVG 1.1//EN" "http://www.w3.org/Graphics/SVG/1.1/DTD/svg11.dtd"><svg width="100%" height="100%" viewBox="0 0 55 55" version="1.1" xmlns="http://www.w3.org/2000/svg" xmlns:xlink="http://www.w3.org/1999/xlink" xml:space="preserve" xmlns:serif="http://www.serif.com/" style="fill-rule:evenodd;clip-rule:evenodd;stroke-linejoin:round;stroke-miterlimit:2;"><rect id="Icon" x="0" y="0.009" width="55" height="55" style="fill:none;"/><clipPath id="_clip1"><rect x="0" y="0.009" width="55" height="55"/></clipPath><g clip-path="url(#_clip1)"><g><path d="M27.5,15.55c6.6,-0 11.959,5.359 11.959,11.959l-4.073,-0c0,-4.353 -3.533,-7.886 -7.886,-7.886l0,-4.073Z" style="fill:#ff5752;"/><path d="M9.365,27.509c0,-10.009 8.126,-18.135 18.135,-18.135l0,6.176c-6.6,-0 -11.959,5.359 -11.959,11.959l-6.176,-0Z" style="fill:#ff5752;"/><path d="M27.5,45.644l-0,9.365c-15.178,-0 -27.5,-12.322 -27.5,-27.5l9.365,-0c0,10.009 8.126,18.135 18.135,18.135Z" style="fill:#ff5752;"/><path d="M27.5,9.374l-0,-9.365c15.178,-0 27.5,12.322 27.5,27.5l-9.365,-0c-0,-10.009 -8.126,-18.135 -18.135,-18.135Z" style="fill:#dadada;"/><path d="M27.5,39.468c-6.6,-0 -11.959,-5.359 -11.959,-11.959l4.073,-0c-0,4.353 3.533,7.886 7.886,7.886l0,4.073Z" style="fill:#dadada;"/><path d="M45.635,27.509c-0,10.009 -8.126,18.135 -18.135,18.135l0,-6.176c6.6,-0 11.959,-5.359 11.959,-11.959l6.176,-0Z" style="fill:#dadada;"/></g></g></svg>